<svg width="21" height="6" viewBox="0 0 21 6" fill="none" xmlns="http://www.w3.org/2000/svg">
<path d="M0 5.1324V0.0780004H2.4414C3.2838 0.0780004 4.1496 0.3588 4.1496 1.4742C4.1496 1.7862 3.978 2.1762 3.705 2.3556C4.1886 2.5116 4.5786 2.925 4.5786 3.6114C4.5786 4.7268 3.627 5.1324 2.5428 5.1324H0ZM1.482 3.8766H2.5038C2.7924 3.8766 3.0342 3.822 3.0342 3.5178C3.0342 3.2136 2.7924 3.159 2.5038 3.159H1.482V3.8766ZM1.482 2.0514H2.3088C2.652 2.0514 2.7612 1.9188 2.7612 1.7082C2.7612 1.4742 2.652 1.3338 2.3088 1.3338H1.482V2.0514Z" fill="white"/>
<path d="M5.18548 5.1324V0.0780004H6.66748V5.1324H5.18548Z" fill="white"/>
<path d="M7.44595 5.1324V0.0780004H8.92795V3.8766H11.619V5.1324H7.44595Z" fill="white"/>
<path d="M12.1668 5.1324V0.0780004H13.6488V3.8766H16.3398V5.1324H12.1668Z" fill="white"/>
<path d="M18.8298 5.226C17.4102 5.226 16.8564 4.68 16.7004 4.6176L17.184 3.4632C17.574 3.6816 18.0186 3.9234 18.8298 3.9234C18.9858 3.9234 19.4382 3.8766 19.4382 3.6114C19.4382 3.3696 19.1184 3.3306 18.8298 3.2604C17.8548 3.042 16.833 2.6676 16.833 1.5288C16.833 0.4758 17.7924 0 18.8298 0C19.6644 0 20.2728 0.2106 20.7876 0.5148L20.2884 1.6614C19.992 1.4586 19.3212 1.2948 18.8298 1.2948C18.705 1.2948 18.3774 1.326 18.3774 1.5288C18.3774 1.7082 18.5646 1.7862 18.8298 1.8486C19.5864 2.0124 20.9826 2.3166 20.9826 3.6114C20.9826 4.7658 19.875 5.226 18.8298 5.226Z" fill="white"/>
</svg>
