<svg width="33" height="6" viewBox="0 0 33 6" fill="none" xmlns="http://www.w3.org/2000/svg">
<path d="M0 5.1324V0.0780004H3.9V1.3338H1.482V1.95H3.5958V3.1902H1.482V5.1324H0Z" fill="white"/>
<path d="M3.46302 5.1324L5.50662 0.0780004H7.03542L9.07902 5.1324H7.56582L7.33182 4.4772H5.21022L4.97622 5.1324H3.46302ZM5.60802 3.3384H6.93402L6.33342 1.6302C6.28662 1.5054 6.27882 1.4586 6.27102 1.4274C6.27102 1.4274 6.25542 1.4976 6.20862 1.6302L5.60802 3.3384Z" fill="white"/>
<path d="M11.4372 5.226C10.0176 5.226 9.46378 4.68 9.30778 4.6176L9.79138 3.4632C10.1814 3.6816 10.626 3.9234 11.4372 3.9234C11.5932 3.9234 12.0456 3.8766 12.0456 3.6114C12.0456 3.3696 11.7258 3.3306 11.4372 3.2604C10.4622 3.042 9.44038 2.6676 9.44038 1.5288C9.44038 0.4758 10.3998 0 11.4372 0C12.2718 0 12.8802 0.2106 13.395 0.5148L12.8958 1.6614C12.5994 1.4586 11.9286 1.2948 11.4372 1.2948C11.3124 1.2948 10.9848 1.326 10.9848 1.5288C10.9848 1.7082 11.172 1.7862 11.4372 1.8486C12.1938 2.0124 13.59 2.3166 13.59 3.6114C13.59 4.7658 12.4824 5.226 11.4372 5.226Z" fill="white"/>
<path d="M14.2463 5.1324V0.0780004H15.7283V1.9656H17.2493V0.0780004H18.7313V5.1324H17.2493V3.2214H15.7283V5.1324H14.2463Z" fill="white"/>
<path d="M19.5079 5.1324V0.0780004H20.9899V5.1324H19.5079Z" fill="white"/>
<path d="M24.319 5.226C22.6966 5.226 21.6124 4.0638 21.6124 2.6052C21.6124 1.1622 22.6966 0 24.319 0C25.9414 0 27.0334 1.1622 27.0334 2.6052C27.0334 4.0638 25.9414 5.226 24.319 5.226ZM24.319 3.8844C25.0054 3.8844 25.489 3.354 25.489 2.6052C25.489 1.872 25.0054 1.3416 24.319 1.3416C23.6794 1.3416 23.1568 1.872 23.1568 2.6052C23.1568 3.354 23.6404 3.8844 24.319 3.8844Z" fill="white"/>
<path d="M27.6547 5.1324V0.0780004H28.9417L30.5485 2.3166C30.6655 2.4726 30.7747 2.6988 30.7747 2.6988V0.0780004H32.2567V5.1324H30.9697L29.3629 2.9328C29.2459 2.7768 29.1367 2.5506 29.1367 2.5506V5.1324H27.6547Z" fill="white"/>
</svg>
