<svg width="21" height="6" viewBox="0 0 21 6" fill="none" xmlns="http://www.w3.org/2000/svg">
<path d="M0 5.1324V0.0780004H3.9V1.3338H1.482V1.95H3.5958V3.1902H1.482V5.1324H0Z" fill="white"/>
<path d="M6.85248 5.226C5.23008 5.226 4.14588 4.0638 4.14588 2.6052C4.14588 1.1622 5.23008 0 6.85248 0C8.47488 0 9.56688 1.1622 9.56688 2.6052C9.56688 4.0638 8.47488 5.226 6.85248 5.226ZM6.85248 3.8844C7.53888 3.8844 8.02248 3.354 8.02248 2.6052C8.02248 1.872 7.53888 1.3416 6.85248 1.3416C6.21288 1.3416 5.69028 1.872 5.69028 2.6052C5.69028 3.354 6.17388 3.8844 6.85248 3.8844Z" fill="white"/>
<path d="M12.7387 5.226C11.1163 5.226 10.0321 4.0638 10.0321 2.6052C10.0321 1.1622 11.1163 0 12.7387 0C14.3611 0 15.4531 1.1622 15.4531 2.6052C15.4531 4.0638 14.3611 5.226 12.7387 5.226ZM12.7387 3.8844C13.4251 3.8844 13.9087 3.354 13.9087 2.6052C13.9087 1.872 13.4251 1.3416 12.7387 1.3416C12.0991 1.3416 11.5765 1.872 11.5765 2.6052C11.5765 3.354 12.0601 3.8844 12.7387 3.8844Z" fill="white"/>
<path d="M16.0744 5.1324V0.0780004H18.1804C19.873 0.0780004 20.9338 1.2246 20.9338 2.6052C20.9338 3.9858 19.873 5.1324 18.1804 5.1324H16.0744ZM17.5564 3.8766H18.1258C18.8824 3.8766 19.366 3.3384 19.366 2.6052C19.366 1.8798 18.8824 1.3338 18.1258 1.3338H17.5564V3.8766Z" fill="white"/>
</svg>
