<svg width="24" height="24" viewBox="0 0 24 24" fill="none" xmlns="http://www.w3.org/2000/svg">
<path fill-rule="evenodd" clip-rule="evenodd" d="M5.5 10.4609C4.67157 10.4609 4 11.1325 4 11.9609C4 12.7894 4.67157 13.4609 5.5 13.4609C6.32843 13.4609 7 12.7894 7 11.9609C7 11.1325 6.32843 10.4609 5.5 10.4609ZM2 11.9609C2 10.0279 3.567 8.46094 5.5 8.46094C7.433 8.46094 9 10.0279 9 11.9609C9 13.8939 7.433 15.4609 5.5 15.4609C3.567 15.4609 2 13.8939 2 11.9609Z" fill="black"/>
<path fill-rule="evenodd" clip-rule="evenodd" d="M18.5 3.96094C17.6716 3.96094 17 4.63251 17 5.46094C17 6.28936 17.6716 6.96094 18.5 6.96094C19.3284 6.96094 20 6.28936 20 5.46094C20 4.63251 19.3284 3.96094 18.5 3.96094ZM15 5.46094C15 3.52794 16.567 1.96094 18.5 1.96094C20.433 1.96094 22 3.52794 22 5.46094C22 7.39393 20.433 8.96094 18.5 8.96094C16.567 8.96094 15 7.39393 15 5.46094Z" fill="black"/>
<path fill-rule="evenodd" clip-rule="evenodd" d="M18.5 16.9609C17.6716 16.9609 17 17.6325 17 18.4609C17 19.2894 17.6716 19.9609 18.5 19.9609C19.3284 19.9609 20 19.2894 20 18.4609C20 17.6325 19.3284 16.9609 18.5 16.9609ZM15 18.4609C15 16.5279 16.567 14.9609 18.5 14.9609C20.433 14.9609 22 16.5279 22 18.4609C22 20.3939 20.433 21.9609 18.5 21.9609C16.567 21.9609 15 20.3939 15 18.4609Z" fill="black"/>
<path fill-rule="evenodd" clip-rule="evenodd" d="M6.84233 12.6205C7.09664 12.1302 7.70023 11.939 8.19047 12.1933L16.4605 16.4833C16.9507 16.7376 17.142 17.3412 16.8877 17.8314C16.6334 18.3217 16.0298 18.5129 15.5395 18.2586L7.26953 13.9686C6.77928 13.7143 6.58801 13.1107 6.84233 12.6205Z" fill="black"/>
<path fill-rule="evenodd" clip-rule="evenodd" d="M17.1646 6.13416C17.4114 6.62825 17.2109 7.22883 16.7168 7.47558L8.44678 11.6056C7.95268 11.8523 7.35211 11.6518 7.10536 11.1577C6.85861 10.6636 7.05912 10.063 7.55322 9.81629L15.8232 5.68629C16.3173 5.43954 16.9179 5.64006 17.1646 6.13416Z" fill="black"/>
</svg>
