<svg width="24" height="24" viewBox="0 0 24 24" fill="none" xmlns="http://www.w3.org/2000/svg">
<path fill-rule="evenodd" clip-rule="evenodd" d="M2.8203 4.49706C5.24263 2.05181 9.17917 2.05461 11.6088 4.49619L11.6103 4.49766L12 4.89091L12.3894 4.49793C14.8117 2.05181 18.7489 2.05432 21.1788 4.49619C23.6071 6.93631 23.6071 10.8768 21.1788 13.3169C21.1674 13.3285 21.1556 13.3397 21.1436 13.3506L12.6736 21.0706C12.2919 21.4185 11.7081 21.4185 11.3264 21.0706L2.85637 13.3506C2.84437 13.3397 2.83263 13.3285 2.82117 13.3169C0.393234 10.8771 0.392945 6.93725 2.8203 4.49706ZM10.1906 5.9064C8.54054 4.2488 5.87813 4.2515 4.24056 5.90519L4.23883 5.90694C2.59249 7.56135 2.58707 10.2287 4.22257 11.8898L12 18.9785L19.7774 11.8898C21.4129 10.2287 21.4075 7.56135 19.7612 5.90694C18.1111 4.2488 15.4483 4.25132 13.8106 5.90519L12.7103 7.01546C12.5225 7.20496 12.2668 7.31156 12 7.31156C11.7332 7.31156 11.4775 7.20496 11.2897 7.01546L10.1906 5.9064C10.1908 5.90658 10.1904 5.90622 10.1906 5.9064Z" fill="black"/>
</svg>
