<svg width="30" height="6" viewBox="0 0 30 6" fill="none" xmlns="http://www.w3.org/2000/svg">
<path d="M1.5834 5.0544V1.2558H0V0H4.6488V1.2558H3.0654V5.0544H1.5834Z" fill="white"/>
<path d="M5.15379 5.0544V0H7.38459C8.93679 0 9.73239 0.897 9.73239 1.9968C9.73239 2.5818 9.46719 3.1824 8.93679 3.549L9.88059 5.0544H8.18799L7.61079 3.9702C7.45479 3.9858 7.36899 3.9936 7.24419 3.9936H6.63579V5.0544H5.15379ZM6.63579 2.7378H7.40019C7.86039 2.7378 8.16459 2.4024 8.16459 1.9968C8.16459 1.5834 7.85259 1.2558 7.40799 1.2558H6.63579V2.7378Z" fill="white"/>
<path d="M9.9879 5.0544L12.0315 0H13.5603L15.6039 5.0544H14.0907L13.8567 4.3992H11.7351L11.5011 5.0544H9.9879ZM12.1329 3.2604H13.4589L12.8583 1.5522C12.8115 1.4274 12.8037 1.3806 12.7959 1.3494C12.7959 1.3494 12.7803 1.4196 12.7335 1.5522L12.1329 3.2604Z" fill="white"/>
<path d="M16.6685 5.0544L14.9525 0H16.4813L17.3783 3.0888C17.4407 3.2916 17.4797 3.471 17.4797 3.471C17.4797 3.471 17.5343 3.276 17.5889 3.0888L18.5327 0H20.0147L18.2987 5.0544H16.6685Z" fill="white"/>
<path d="M20.4284 5.0544V0H24.4454V1.2558H21.9104V1.872H24.344V3.1122H21.9104V3.7986H24.539V5.0544H20.4284Z" fill="white"/>
<path d="M25.0502 5.0544V0H26.5322V3.7986H29.2232V5.0544H25.0502Z" fill="white"/>
</svg>
