<svg width="58" height="45" viewBox="0 0 58 45" fill="none" xmlns="http://www.w3.org/2000/svg">
<path d="M57.9 18H0V20.1C0 33.3548 10.7452 44.1 24 44.1H33.9C47.1548 44.1 57.9 33.3548 57.9 20.1V18Z" fill="#8D91FF"/>
<path d="M17.1 1.5C17.1 0.671573 17.7716 0 18.6 0C19.4284 0 20.1 0.671573 20.1 1.5V21.3C20.1 22.1284 19.4284 22.8 18.6 22.8C17.7716 22.8 17.1 22.1284 17.1 21.3V1.5Z" fill="#8D91FF"/>
<path d="M25.5 1.5C25.5 0.671573 26.1716 0 27 0C27.8284 0 28.5 0.671573 28.5 1.5V21.3C28.5 22.1284 27.8284 22.8 27 22.8C26.1716 22.8 25.5 22.1284 25.5 21.3V1.5Z" fill="#8D91FF"/>
<path d="M33.9 1.5C33.9 0.671573 34.5716 0 35.4 0C36.2284 0 36.9 0.671573 36.9 1.5V21.3C36.9 22.1284 36.2284 22.8 35.4 22.8C34.5716 22.8 33.9 22.1284 33.9 21.3V1.5Z" fill="#8D91FF"/>
<path d="M29.7 1.5C29.7 0.671573 30.3716 0 31.2 0C32.0284 0 32.7 0.671573 32.7 1.5V21.3C32.7 22.1284 32.0284 22.8 31.2 22.8C30.3716 22.8 29.7 22.1284 29.7 21.3V1.5Z" fill="#8D91FF"/>
<path d="M21.3 1.5C21.3 0.671573 21.9716 0 22.8 0C23.6284 0 24.3 0.671573 24.3 1.5V21.3C24.3 22.1284 23.6284 22.8 22.8 22.8C21.9716 22.8 21.3 22.1284 21.3 21.3V1.5Z" fill="#8D91FF"/>
<path d="M38.1 1.5C38.1 0.671573 38.7716 0 39.6 0C40.4284 0 41.1 0.671573 41.1 1.5V21.3C41.1 22.1284 40.4284 22.8 39.6 22.8C38.7716 22.8 38.1 22.1284 38.1 21.3V1.5Z" fill="#8D91FF"/>
<path d="M53.1 2.7H11.1V5.1H53.1V2.7Z" fill="#8D91FF"/>
<path d="M53.1 5.7H11.1V8.1H53.1V5.7Z" fill="#8D91FF"/>
</svg>
