<svg width="29" height="29" viewBox="0 0 29 29" fill="none" xmlns="http://www.w3.org/2000/svg">
<path d="M14.9768 28.3602C14.8694 28.5983 14.5686 28.9013 14.3967 28.9013C14.2248 28.9013 13.8381 28.6632 13.7736 28.4901L10.3144 19.8117C10.0781 19.249 9.58389 18.7513 9.02526 18.5132L0.473946 15.0505C0.237603 14.964 -0.0202285 14.5744 0.00125722 14.4013C0.022743 14.2282 0.28057 13.9252 0.452456 13.8602L8.5311 10.5923C9.15418 10.3976 9.92766 9.98638 10.1855 9.33712L13.7306 0.463998C13.7951 0.312506 14.0529 0.0528062 14.2033 0.0095227C14.3967 -0.0554026 14.8049 0.225929 14.8909 0.420705L18.436 9.2722C18.6079 9.68339 19.0806 10.1595 19.4888 10.3326L28.212 13.8819C28.4269 13.9685 28.6417 14.2498 28.6847 14.4013C28.7277 14.5528 28.4699 14.9423 28.298 15.0073L19.8971 18.4267C19.188 18.708 18.6509 19.1408 18.3716 19.8334L14.9983 28.3386L14.9768 28.3602Z" fill="white"/>
</svg>
