<svg width="20" height="24" viewBox="0 0 20 24" fill="none" xmlns="http://www.w3.org/2000/svg">
<path d="M18.18 10.2L5.61 10.8V12.33L18.21 12.12C18.93 12.12 19.14 12.33 19.14 13.14V15.6C19.14 16.35 18.93 16.59 18.21 16.59L12.42 16.71V18.6L18.75 18.48C19.47 18.48 19.74 18.66 19.74 19.35V22.17C19.74 22.86 19.47 23.04 18.75 23.04L0.990005 23.34C0.270006 23.34 0 23.16 0 22.47V19.65C0 18.96 0.270006 18.78 0.990005 18.78L7.32001 18.69V16.8L1.68 16.89C0.75 16.92 0.570001 16.65 0.540001 15.6L0.300003 7.95C0.270003 6.9 0.510003 6.66 1.44 6.63L14.22 6V4.44L0.810005 4.68C0.210005 4.68 0.0300064 4.56 0.0300064 4.11V0.899999C0.0300064 0.45 0.210005 0.3 0.810005 0.3L18.42 0C19.35 0 19.59 0.239999 19.56 1.29L19.32 8.94C19.29 9.93 19.11 10.17 18.18 10.2Z" fill="white"/>
</svg>
