<svg width="37" height="14" viewBox="0 0 37 14" fill="none" xmlns="http://www.w3.org/2000/svg">
<path d="M36.5526 13.5264C36.3967 13.575 35.5476 13.8089 34.645 13.8089C32.6316 13.8089 31.56 12.9421 31.56 11.0971V0H32.6883C33.865 0 34.2484 0.689899 34.2484 1.64888V2.49135H36.5534V3.14353C36.5534 4.0715 35.9151 4.59709 34.9634 4.59709H34.2484V10.6218C34.2484 11.2815 34.47 11.7518 35.3992 11.7518C35.9509 11.7518 36.4642 11.5933 36.5517 11.5673C36.5517 11.7912 36.5517 13.5281 36.5517 13.5281M29.5632 4.28945C30.1333 4.28945 30.7249 4.46129 30.7941 4.48141V2.49051C30.6983 2.47207 29.5957 2.23232 28.5474 2.23232C26.7723 2.23232 25.519 2.96917 25.519 4.90558V13.5432H28.2074V5.43956C28.2074 4.72451 28.6599 4.29029 29.5632 4.29029V4.28945ZM14.1262 5.36328C14.1262 4.25172 13.5028 2.24071 9.90858 2.24071C8.06604 2.24071 7.32685 2.73026 7.06351 2.90881C6.79017 2.75373 5.93265 2.24071 4.21677 2.24071C0.895855 2.24071 0 3.90384 0 5.2828V13.5423H2.7109V5.46219C2.7109 4.99527 2.97341 4.28777 4.21594 4.28777C5.18263 4.28777 5.70764 4.779 5.70764 5.46219V13.5423H8.41938V5.46219C8.41938 4.78151 8.93356 4.28777 9.90942 4.28777C10.9728 4.28777 11.4153 4.83516 11.4153 5.46219V11.6906C11.4153 12.9119 12.122 13.6002 13.2437 13.6002H14.1262V5.36244V5.36328ZM19.858 2.234C23.2506 2.234 24.4789 3.85103 24.4789 6.0012V9.49848C24.4789 11.9563 22.9122 13.8089 19.668 13.8089C16.4237 13.8089 14.8695 12.3427 14.8695 10.3661C14.8695 8.79014 15.9337 7.75152 18.248 7.11108C18.5846 7.01803 19.7105 6.6802 20.223 6.52848C21.3905 6.18562 21.7664 5.91738 21.7664 5.41022C21.7664 4.87456 21.1172 4.28945 19.7963 4.28945C18.2171 4.28945 17.7204 5.27023 17.7121 5.97773H15.2495C15.2495 3.78984 16.5462 2.23316 19.8588 2.23316L19.858 2.234ZM19.453 11.7518C20.4963 11.7518 21.7714 11.0895 21.7714 9.40376V8.07845C21.7714 8.07845 19.7188 8.66943 19.143 8.8463C18.118 9.15898 17.6254 9.68374 17.6254 10.372C17.6254 11.0602 18.1896 11.7518 19.453 11.7518Z" fill="#4E5059"/>
</svg>
