<svg width="270" height="213" viewBox="0 0 270 213" fill="none" xmlns="http://www.w3.org/2000/svg">
<path d="M207.074 71.1247L207.34 80.6493L233.773 79.8626L234.356 94.4926L169.612 100.954L168.78 82.2396L193.999 81.3189L194.099 71.1917L172.573 71.108L172.257 29.1262L226.737 29.4777L226.703 40.8436L190.971 42.9025L191.337 57.1141L227.469 55.4234L227.701 71.426L207.074 71.1247Z" fill="white"/>
<path d="M244.636 212.002C234.638 213.224 225.323 212.069 217.438 205.44C215.092 203.481 213.462 200.786 212.331 197.857C209.253 189.839 212.131 181.017 218.436 175.376C221.796 172.363 225.323 170.288 229.814 168.63V162.571L207.357 163.24L206.242 149.23L269.189 147.673L269.672 160.947L247.231 162.119L247.264 166.772C254.401 168.145 264.731 173.15 267.692 180.214C270.587 187.144 269.372 194.978 264.764 200.937C259.874 207.264 252.538 211.031 244.636 212.002ZM249.144 193.672C250.858 191.078 251.29 187.847 249.843 184.968C246.699 178.691 237.317 179.595 232.875 183.194C230.313 185.269 229.115 188.014 229.631 191.329C230.047 194.041 232.043 196.484 235.004 197.506C239.612 199.096 246.449 197.723 249.144 193.656V193.672Z" fill="white"/>
<path d="M163.972 109.324H111.555L108.827 84.1646L144.127 82.6246L143.96 78.6406L110.807 78.8248L111.039 68.7645L161.144 68.3126L161.061 93.6222L127.858 93.957L127.508 98.2422L163.972 98.259V109.324Z" fill="white"/>
<path d="M234.888 134.985L212.164 145.865L206.242 136.491L224.957 124.958L208.288 125.276L206.957 111.215L258.826 111.265L258.942 122.313L243.488 124.724L263.217 134.801L255.798 145.882L234.888 134.985Z" fill="white"/>
<path d="M105.716 166.973L93.506 186.441L78.4346 178.44L96.0345 154.369L98.8459 120.003L118.725 120.522L112.886 154.586L129.754 164.111L121.237 178.523L105.716 166.973Z" fill="white"/>
<path d="M146.223 155.49L144.775 193.153L131.451 193.304L130.769 116.756H147.254L146.655 141.161L154.108 142.116V154.369L146.223 155.49Z" fill="white"/>
<path d="M200.802 189.102L159.148 189.086L157.551 163.24H174.769L174.619 174.824L201.967 173.853L200.802 189.102Z" fill="white"/>
<path d="M163.922 48.8114L109.991 48.5771L110.075 23.6357L124.93 23.619L124.031 37.7803L141.748 36.9434L163.922 35.8386V48.8114Z" fill="white"/>
<path d="M107.696 65.8519L107.43 52.5443L166.301 52.5108L166.368 64.0943L107.696 65.8519Z" fill="white"/>
<path d="M197.326 142.986L157.967 142.936L156.187 117.358H171.042L171.059 130.683L198.39 130.582L197.326 142.986Z" fill="white"/>
<path d="M200.104 159.424L159.348 159.441L158.283 147.238L200.47 147.188L200.104 159.424Z" fill="white"/>
<path d="M78.2849 66.1197L80.1979 86.6754L101.075 83.2272L104.286 101.105L42.6524 110.043L40.4067 95.2124L62.4649 90.5757L56.1435 74.4558L78.2849 66.1197Z" fill="white"/>
<path d="M62.4316 0C43.0849 0 27.4147 15.785 27.4147 35.236C27.4147 54.6869 43.1016 70.4719 62.4316 70.4719C81.7616 70.4719 97.4485 54.6869 97.4485 35.236C97.4485 15.785 81.7616 0 62.4316 0ZM78.9669 18.0448C80.2145 18.0448 81.1128 19.5179 81.1128 21.5433C81.1128 23.5688 80.2145 25.0418 78.9669 25.0418C77.7193 25.0418 76.821 23.5688 76.821 21.5433C76.821 19.5179 77.7193 18.0448 78.9669 18.0448ZM68.1873 18.0448C69.435 18.0448 70.3333 19.5179 70.3333 21.5433C70.3333 23.5688 69.435 25.0418 68.1873 25.0418C66.9397 25.0418 66.0414 23.5688 66.0414 21.5433C66.0414 19.5179 66.9397 18.0448 68.1873 18.0448ZM73.5771 40.4084C66.3741 40.4084 59.1711 37.6464 53.6982 32.1392C53.1492 31.5868 53.1492 30.6996 53.6982 30.164C54.2471 29.6116 55.1288 29.6116 55.6611 30.164C65.5424 40.1071 81.6119 40.1071 91.4931 30.164C92.0421 29.6116 92.9238 29.6116 93.4561 30.164C94.005 30.7164 94.005 31.6036 93.4561 32.1392C87.9665 37.6464 80.7801 40.4084 73.5771 40.4084Z" fill="white"/>
<path d="M40.2736 194.727L40.2902 189.035L73.2943 188.316L76.1057 162.437L29.3443 161.784L29.2279 172.949L56.5095 173.702L56.4263 176.397L20.5277 178.958L24.4536 207.114L81.6451 207.633L80.7635 191.764L40.2736 194.727Z" fill="white"/>
<path d="M45.1311 158.168L53.9144 147.054L36.9133 133.579L37.0797 130.666L50.9866 130.298L51.3193 116.321L3.97579 114.027L4.0257 130.432L19.3633 130.465L19.3466 134.248L0 149.564L12.7758 165.668L30.6419 147.891L45.1311 158.168Z" fill="white"/>
<path d="M74.0928 127.184L75.4569 114.027L59.1046 114.379L58.7386 159.39L72.5291 159.056L73.444 142.032L82.0943 141.898L84.0073 127.301L74.0928 127.184Z" fill="white"/>
</svg>
