<svg width="24" height="23" viewBox="0 0 24 23" fill="none" xmlns="http://www.w3.org/2000/svg">
<path d="M4.89 1.17L4.95 7.05L10.56 6.93L10.68 0.869999C10.68 0.179999 10.95 0 11.67 0H14.52C15.45 0 15.69 0.299999 15.66 1.35L15.03 21C15 22.05 14.76 22.35 13.89 22.35L1.44 22.68C0.6 22.68 0.3 22.38 0.3 21.33L0 1.17C0 0.479999 0.27 0.3 0.99 0.3H3.9C4.62 0.3 4.89 0.479999 4.89 1.17ZM18.15 20.43V1.95C18.15 0.899999 18.45 0.599999 19.29 0.599999H22.11C22.98 0.599999 23.25 0.899999 23.25 1.95V20.43C23.25 21.48 22.98 21.78 22.11 21.78H19.29C18.45 21.78 18.15 21.48 18.15 20.43ZM5.1 18.09L10.38 17.94L10.5 11.52L5.01 11.61L5.1 18.09Z" fill="white"/>
</svg>
