<svg width="57" height="46" viewBox="0 0 57 46" fill="none" xmlns="http://www.w3.org/2000/svg">
<path d="M0 22.5335C0 15.7059 5.68875 10.1755 12.5102 10.4658L46.2092 11.8998C51.9062 12.1422 56.4 16.8314 56.4 22.5335C56.4 28.2356 51.9062 32.9247 46.2092 33.1671L12.5102 34.6011C5.68876 34.8914 0 29.3611 0 22.5335Z" fill="#83C865"/>
<path d="M50.7554 9.65176C47.5522 11.8815 44.547 13.9865 44.4 14.1335L56.4 21.9335V12.6043C56.4 9.70033 53.1388 7.99267 50.7554 9.65176Z" fill="#83C865"/>
<path d="M23.7278 2.99933C18.2582 8.35229 8.12662 16.8068 7.2 17.7335H36V4.20358C36 1.29626 33.1173 -0.73172 30.381 0.25056L25.059 2.161C24.5592 2.34042 24.1073 2.62789 23.7278 2.99933Z" fill="#83C865"/>
<path d="M23.7278 42.6676C18.2582 37.3147 8.12662 28.8601 7.2 27.9335H36V41.4634C36 44.3707 33.1173 46.3987 30.381 45.4164L25.059 43.5059C24.5592 43.3265 24.1073 43.0391 23.7278 42.6676Z" fill="#83C865"/>
</svg>
