<svg width="29" height="38" viewBox="0 0 29 38" fill="none" xmlns="http://www.w3.org/2000/svg">
<path d="M8.33929 37.8406C8.19126 37.9996 7.36473 38.073 7.24136 37.9018C7.118 37.7306 7.00698 37.2903 7.05632 37.0702L10.3008 24.1435C10.4365 23.5932 9.72095 22.9083 9.2275 22.9206L1.07323 22.945C0.764827 22.945 0.172686 22.7004 0.0493236 22.4803C-0.111048 22.2112 0.148014 21.5631 0.419411 21.2818L20.9963 0.295859C21.1443 0.149105 21.6995 -0.0221093 21.9092 0.00234984C22.1682 0.0390385 22.4396 0.785042 22.3533 1.12747L19.2322 14.1397C19.0842 14.7757 19.7257 15.5461 20.3425 15.5461H27.9786C28.2994 15.5339 28.8915 15.8274 28.9779 16.0598C29.0765 16.3533 28.8298 16.9281 28.5461 17.2216L8.33929 37.8406Z" fill="#FFEA00"/>
</svg>
