<svg width="26" height="23" viewBox="0 0 26 23" fill="none" xmlns="http://www.w3.org/2000/svg">
<path d="M15.1127 21.57L13.1627 17.22L10.9427 21.96C10.7327 22.41 10.4027 22.5 9.89268 22.29L7.46268 21.3C6.77268 21.03 6.74268 20.76 7.07268 20.07L7.73268 18.57L5.99267 16.2L4.19268 20.61C3.98268 21.06 3.65268 21.15 3.14268 20.94L0.562676 19.8C-0.00732362 19.53 -0.157325 19.29 0.172675 18.57L2.66268 12.66C2.93268 12.03 3.14268 11.22 3.14268 10.5V3C3.14268 1.95 3.44268 1.65 4.28268 1.65H7.10268C7.94268 1.65 8.24267 1.95 8.24267 3V10.5C8.24267 11.22 8.36268 11.79 8.72268 12.36L9.71268 13.95L10.1627 12.96C10.4327 12.39 10.6427 11.82 10.6427 11.1V1.35C10.6427 0.299999 10.9427 0 11.7827 0H14.6027C15.4427 0 15.7427 0.299999 15.7427 1.35V11.1C15.7427 11.82 15.9827 12.66 16.2227 13.26L19.0127 19.77C19.2527 20.34 19.1927 20.58 18.6227 20.85L16.1927 21.99C15.6827 22.23 15.3827 22.17 15.1127 21.57ZM20.3327 20.43V1.95C20.3327 0.899999 20.6327 0.599999 21.4727 0.599999H24.2927C25.1627 0.599999 25.4327 0.899999 25.4327 1.95V20.43C25.4327 21.48 25.1627 21.78 24.2927 21.78H21.4727C20.6327 21.78 20.3327 21.48 20.3327 20.43Z" fill="white"/>
</svg>
