<svg width="57" height="43" viewBox="0 0 57 43" fill="none" xmlns="http://www.w3.org/2000/svg">
<path d="M6.6492 9.73384C7.73575 4.08376 12.6797 0 18.4333 0H38.8089C44.5625 0 49.5064 4.08375 50.593 9.73383L51.9776 16.9338C53.4008 24.3345 47.7298 31.2 40.1935 31.2H17.0487C9.51234 31.2 3.84137 24.3346 5.26459 16.9338L6.6492 9.73384Z" fill="#FFB79B"/>
<path d="M0.894952 19.3398C1.13541 16.2138 3.74206 13.8 6.87728 13.8H49.7649C52.9001 13.8 55.5068 16.2138 55.7472 19.3398L56.6242 30.7398C56.8922 34.2246 54.1369 37.2 50.6418 37.2H6.00036C2.5053 37.2 -0.25003 34.2246 0.0180291 30.7398L0.894952 19.3398Z" fill="#FFB79B"/>
<path d="M5.52109 33C5.52109 32.0059 6.32698 31.2 7.32109 31.2H15.7211C16.7152 31.2 17.5211 32.0059 17.5211 33V40.8C17.5211 41.7941 16.7152 42.6 15.7211 42.6H7.32109C6.32698 42.6 5.52109 41.7941 5.52109 40.8V33Z" fill="#FFB79B"/>
<path d="M39.1211 33C39.1211 32.0059 39.927 31.2 40.9211 31.2H49.3211C50.3152 31.2 51.1211 32.0059 51.1211 33V40.8C51.1211 41.7941 50.3152 42.6 49.3211 42.6H40.9211C39.927 42.6 39.1211 41.7941 39.1211 40.8V33Z" fill="#FFB79B"/>
</svg>
