<svg width="26" height="26" viewBox="0 0 26 26" fill="none" xmlns="http://www.w3.org/2000/svg">
<path d="M13.5728 25.5133C13.4755 25.7274 13.2029 26 13.0471 26C12.8913 26 12.5408 25.7858 12.4824 25.6301L9.34749 17.8229C9.1333 17.3167 8.68546 16.8689 8.17919 16.6548L0.429516 13.5397C0.215329 13.4618 -0.0183322 13.1114 0.00113936 12.9556C0.0206109 12.7998 0.254268 12.5273 0.410041 12.4689L7.73136 9.52902C8.29603 9.3538 8.997 8.98388 9.23066 8.39981L12.4435 0.417419C12.5019 0.281134 12.7356 0.0475052 12.8719 0.00856675C13.0471 -0.049841 13.4171 0.203249 13.4949 0.378472L16.7078 8.3414C16.8635 8.71132 17.2919 9.13963 17.6619 9.29539L25.5673 12.4883C25.762 12.5662 25.9567 12.8193 25.9957 12.9556C26.0346 13.0919 25.801 13.4423 25.6452 13.5008L18.0318 16.5769C17.3893 16.83 16.9025 17.2194 16.6493 17.8424L13.5923 25.4938L13.5728 25.5133Z" fill="white"/>
</svg>
