<svg width="26" height="23" viewBox="0 0 26 23" fill="none" xmlns="http://www.w3.org/2000/svg">
<path d="M8.76001 21.0319L9.3 14.0118L1.68 14.1918C0.96 14.2219 0.690002 14.0118 0.690002 13.3218V10.5018C0.690002 9.81185 0.96 9.66185 1.68 9.63185L9.66 9.39185L10.02 4.65185L0.990002 4.86185C0.270002 4.89185 0 4.68185 0 3.99185V1.17185C0 0.481849 0.270002 0.331849 0.990002 0.30185L14.22 0.0018499C15.15 -0.0281515 15.45 0.301849 15.36 1.35185L13.83 21.0319C13.74 22.0819 13.56 22.3819 12.69 22.3819H9.90001C9.06001 22.3819 8.67001 22.0819 8.76001 21.0319ZM17.25 20.4319V1.95185C17.25 0.901849 17.55 0.601849 18.39 0.601849H21.21C22.08 0.601849 22.35 0.901849 22.35 1.95185V8.82185L24.36 8.76185C25.08 8.73185 25.35 8.94185 25.35 9.63185V12.4518C25.35 13.1418 25.08 13.2918 24.36 13.3218L22.35 13.3819V20.4319C22.35 21.4818 22.08 21.7819 21.21 21.7819H18.39C17.55 21.7819 17.25 21.4818 17.25 20.4319Z" fill="white"/>
</svg>
