<svg width="20" height="24" viewBox="0 0 20 24" fill="none" xmlns="http://www.w3.org/2000/svg">
<path d="M18.75 23.04L0.990005 23.34C0.270006 23.34 0 23.16 0 22.47V19.65C0 18.96 0.270006 18.78 0.990005 18.78L18.75 18.48C19.47 18.48 19.74 18.66 19.74 19.35V22.17C19.74 22.86 19.47 23.04 18.75 23.04ZM18.57 4.47L5.28001 4.71L5.34 12.18L18.15 11.97C18.99 11.94 19.14 12.24 19.14 13.17V15.39C19.14 16.32 18.99 16.59 18.15 16.59L1.38 16.89C0.540005 16.89 0.270006 16.47 0.240005 15.54L0.0300064 1.65C6.34789e-06 0.599999 0.300006 0.3 1.17001 0.3L18.57 0C19.44 0 19.56 0.15 19.56 1.2V3.27C19.56 4.32 19.44 4.44 18.57 4.47Z" fill="white"/>
</svg>
