<svg width="12" height="14" viewBox="0 0 12 14" fill="none" xmlns="http://www.w3.org/2000/svg">
<path d="M5.37597 14C1.63421 14 0 11.6939 0 8.7784V5.62985C0 1.57847 2.6859 0 5.83598 0C9.64107 0 11.3036 2.08311 11.3036 4.16454C11.3036 7.20413 8.2127 7.95019 6.84767 8.34753C6.45433 8.46237 5.00596 8.89576 4.68012 8.99133C3.40509 9.36184 3.03924 9.77763 3.03924 10.2487C3.03924 11.0535 3.73843 11.7509 5.3743 11.7509C6.79767 11.7509 7.8377 11.2639 8.01187 9.7684H10.9886C10.6819 12.1349 9.26773 14 5.3743 14M5.71098 2.25412C4.05677 2.25412 2.97424 3.36735 2.97424 5.26352V7.25442C2.97424 7.25442 5.2118 6.59722 6.14682 6.3122C6.92934 6.07329 8.33021 5.57368 8.33021 4.3322C8.33021 3.24999 7.45769 2.25496 5.71098 2.25496V2.25412Z" fill="white"/>
</svg>
